<svg width="358" height="200" viewBox="0 0 358 200" fill="none" xmlns="http://www.w3.org/2000/svg">
<path d="M275.5 100C275.5 153.848 231.848 197.5 178 197.5C124.152 197.5 80.5 153.848 80.5 100C80.5 46.1522 124.152 2.5 178 2.5C231.848 2.5 275.5 46.1522 275.5 100Z" stroke="#888888" stroke-width="5"/>
<line x1="276" y1="97.5" x2="358" y2="97.5" stroke="#888888" stroke-width="5"/>
<line y1="97.5" x2="82" y2="97.5" stroke="#888888" stroke-width="5"/>
<rect width="35.2039" height="18.1557" transform="matrix(0.6787 0.734416 -0.745173 0.666871 166.07 25.0696)" fill="#3B82F6"/>
<rect width="36.3114" height="17.602" transform="matrix(0.740762 -0.671614 0.683819 0.729803 151.26 62.5622)" fill="#3B82F6"/>
<rect width="17.1947" height="17.1651" transform="matrix(0.742541 -0.6698 0.681347 0.731961 179 38.006)" fill="#888888" fill-opacity="0.533333"/>
<rect width="17.0297" height="17.4416" transform="matrix(0.737277 -0.67559 0.687054 0.726607 177.995 62.9916)" fill="#888888" fill-opacity="0.533333"/>
<path d="M125.651 105.636C120.427 113.073 147.417 69.3771 179.631 100.057C211.846 130.738 225.776 92.6197 231 92.6197" stroke="#888888" stroke-width="5" stroke-linecap="round"/>
<path fill-rule="evenodd" clip-rule="evenodd" d="M164.301 125.167H188.987C194.611 125.348 199.018 129.764 198.844 135.042V148.625C198.927 151.174 197.925 153.649 196.058 155.503C194.192 157.356 191.615 158.435 188.898 158.5H167.765C166.302 158.528 164.915 159.115 163.924 160.125L158.663 165.396C158.217 165.852 157.591 166.116 156.931 166.125C156.25 166.109 155.604 165.838 155.137 165.372C154.67 164.906 154.421 164.285 154.445 163.646V135.042C154.27 129.764 158.678 125.348 164.301 125.167ZM188.987 155.375C192.772 155.195 195.69 152.178 195.514 148.625V135.042C195.69 131.489 192.772 128.471 188.987 128.292H164.301C160.517 128.471 157.599 131.489 157.775 135.042V161.708L161.393 158C163.048 156.348 165.349 155.4 167.765 155.375H188.987Z" fill="#888888" fill-opacity="0.58"/>
<path d="M168.32 139.229H179.419C180.339 139.229 181.084 138.53 181.084 137.667C181.084 136.804 180.339 136.104 179.419 136.104H168.32C167.4 136.104 166.655 136.804 166.655 137.667C166.655 138.53 167.4 139.229 168.32 139.229Z" fill="#888888" fill-opacity="0.58"/>
<path d="M184.969 144.438H168.32C167.4 144.438 166.655 145.137 166.655 146C166.655 146.863 167.4 147.563 168.32 147.563H184.969C185.889 147.563 186.634 146.863 186.634 146C186.634 145.137 185.889 144.438 184.969 144.438Z" fill="#888888" fill-opacity="0.58"/>
</svg>
